<svg width="30" height="99" viewBox="0 0 30 99" fill="none" xmlns="http://www.w3.org/2000/svg">
<path d="M14.536 38.384C12.7653 38.384 11.1227 38.096 9.608 37.52C8.11467 36.944 6.81333 36.1333 5.704 35.088C4.616 34.0427 3.76267 32.816 3.144 31.408C2.54667 30 2.248 28.464 2.248 26.8C2.248 25.136 2.54667 23.6 3.144 22.192C3.76267 20.784 4.62667 19.5573 5.736 18.512C6.84533 17.4667 8.14667 16.656 9.64 16.08C11.1333 15.504 12.7547 15.216 14.504 15.216C16.2747 15.216 17.896 15.504 19.368 16.08C20.8613 16.656 22.152 17.4667 23.24 18.512C24.3493 19.5573 25.2133 20.784 25.832 22.192C26.4507 23.5787 26.76 25.1147 26.76 26.8C26.76 28.464 26.4507 30.0107 25.832 31.44C25.2133 32.848 24.3493 34.0747 23.24 35.12C22.152 36.144 20.8613 36.944 19.368 37.52C17.896 38.096 16.2853 38.384 14.536 38.384ZM14.504 33.968C15.5067 33.968 16.424 33.7973 17.256 33.456C18.1093 33.1147 18.856 32.624 19.496 31.984C20.136 31.344 20.6267 30.5867 20.968 29.712C21.3307 28.8373 21.512 27.8667 21.512 26.8C21.512 25.7333 21.3307 24.7627 20.968 23.888C20.6267 23.0133 20.136 22.256 19.496 21.616C18.8773 20.976 18.1413 20.4853 17.288 20.144C16.4347 19.8027 15.5067 19.632 14.504 19.632C13.5013 19.632 12.5733 19.8027 11.72 20.144C10.888 20.4853 10.152 20.976 9.512 21.616C8.872 22.256 8.37067 23.0133 8.008 23.888C7.66667 24.7627 7.496 25.7333 7.496 26.8C7.496 27.8453 7.66667 28.816 8.008 29.712C8.37067 30.5867 8.86133 31.344 9.48 31.984C10.12 32.624 10.8667 33.1147 11.72 33.456C12.5733 33.7973 13.5013 33.968 14.504 33.968Z" fill="black"/>
<path d="M5.216 77V73.64L19.072 56.936L19.712 58.824H5.472V54.6H24.32V57.96L10.496 74.664L9.856 72.776H24.8V77H5.216Z" fill="black"/>
<line y1="46" x2="30" y2="46" stroke="black" stroke-width="4"/>
<line x1="14.5" y1="1.09278e-07" x2="14.5" y2="99" stroke="white" stroke-width="5"/>
</svg>
